<?xml version="1.0" encoding="UTF-8" standalone="no"?>
<svg
   xmlns:dc="http://purl.org/dc/elements/1.1/"
   xmlns:cc="http://creativecommons.org/ns#"
   xmlns:rdf="http://www.w3.org/1999/02/22-rdf-syntax-ns#"
   xmlns:svg="http://www.w3.org/2000/svg"
   xmlns="http://www.w3.org/2000/svg"
   xmlns:sodipodi="http://sodipodi.sourceforge.net/DTD/sodipodi-0.dtd"
   xmlns:inkscape="http://www.inkscape.org/namespaces/inkscape"
   height="800"
   width="1200"
   viewBox="-74.4 -120.90175 644.8 725.4105"
   version="1.1"
   id="svg4"
   sodipodi:docname="github-pharmacon.svg"
   inkscape:version="0.92.4 (5da689c313, 2019-01-14)">
  <metadata
     id="metadata10">
    <rdf:RDF>
      <cc:Work
         rdf:about="">
        <dc:format>image/svg+xml</dc:format>
        <dc:type
           rdf:resource="http://purl.org/dc/dcmitype/StillImage" />
        <dc:title />
      </cc:Work>
    </rdf:RDF>
  </metadata>
  <defs
     id="defs8" />
  <sodipodi:namedview
     pagecolor="#ffffff"
     bordercolor="#666666"
     borderopacity="1"
     objecttolerance="10"
     gridtolerance="10"
     guidetolerance="10"
     inkscape:pageopacity="0"
     inkscape:pageshadow="2"
     inkscape:window-width="1920"
     inkscape:window-height="1017"
     id="namedview6"
     showgrid="false"
     inkscape:zoom="1"
     inkscape:cx="718.53278"
     inkscape:cy="349.66018"
     inkscape:window-x="1072"
     inkscape:window-y="325"
     inkscape:window-maximized="1"
     inkscape:current-layer="svg4" />
  <path
     inkscape:connector-curvature="0"
     d="m 165.9,389.4 c 0,2 -2.3,3.6 -5.2,3.6 -3.3,0.3 -5.6,-1.3 -5.6,-3.6 0,-2 2.3,-3.6 5.2,-3.6 3,-0.3 5.6,1.3 5.6,3.6 z m -31.1,-4.5 c -0.7,2 1.3,4.3 4.3,4.9 2.6,1 5.6,0 6.2,-2 0.6,-2 -1.3,-4.3 -4.3,-5.2 -2.6,-0.7 -5.5,0.3 -6.2,2.3 z m 44.2,-1.7 c -2.9,0.7 -4.9,2.6 -4.6,4.9 0.3,2 2.9,3.3 5.9,2.6 2.9,-0.7 4.9,-2.6 4.6,-4.6 -0.3,-1.9 -3,-3.2 -5.9,-2.9 z M 244.8,0 C 106.1,0 0,105.3 0,244 c 0,110.9 69.8,205.8 169.5,239.2 12.8,2.3 17.3,-5.6 17.3,-12.1 0,-6.2 -0.3,-40.4 -0.3,-61.4 0,0 -70,15 -84.7,-29.8 0,0 -11.4,-29.1 -27.8,-36.6 0,0 -22.9,-15.7 1.6,-15.4 0,0 24.9,2 38.6,25.8 21.9,38.6 58.6,27.5 72.9,20.9 2.3,-16 8.8,-27.1 16,-33.7 -55.9,-6.2 -112.3,-14.3 -112.3,-110.5 0,-27.5 7.6,-41.3 23.6,-58.9 -2.6,-6.5 -11.1,-33.3 2.6,-67.9 20.9,-6.5 69,27 69,27 20,-5.6 41.5,-8.5 62.8,-8.5 21.3,0 42.8,2.9 62.8,8.5 0,0 48.1,-33.6 69,-27 13.7,34.7 5.2,61.4 2.6,67.9 16,17.7 25.8,31.5 25.8,58.9 0,96.5 -58.9,104.2 -114.8,110.5 9.2,7.9 17,22.9 17,46.4 0,33.7 -0.3,75.4 -0.3,83.6 0,6.5 4.6,14.4 17.3,12.1 C 428.2,449.8 496,354.9 496,244 496,105.3 383.5,0 244.8,0 Z M 97.2,344.9 c -1.3,1 -1,3.3 0.7,5.2 1.6,1.6 3.9,2.3 5.2,1 1.3,-1 1,-3.3 -0.7,-5.2 -1.6,-1.6 -3.9,-2.3 -5.2,-1 z m -10.8,-8.1 c -0.7,1.3 0.3,2.9 2.3,3.9 1.6,1 3.6,0.7 4.3,-0.7 0.7,-1.3 -0.3,-2.9 -2.3,-3.9 -2,-0.6 -3.6,-0.3 -4.3,0.7 z m 32.4,35.6 c -1.6,1.3 -1,4.3 1.3,6.2 2.3,2.3 5.2,2.6 6.5,1 1.3,-1.3 0.7,-4.3 -1.3,-6.2 -2.2,-2.3 -5.2,-2.6 -6.5,-1 z m -11.4,-14.7 c -1.6,1 -1.6,3.6 0,5.9 1.6,2.3 4.3,3.3 5.6,2.3 1.6,-1.3 1.6,-3.9 0,-6.2 -1.4,-2.3 -4,-3.3 -5.6,-2 z"
     id="path2" />
  <path
     style="fill:#ff0000;stroke:#ff0000;stroke-width:0.90676314px;stroke-linecap:butt;stroke-linejoin:miter;stroke-opacity:1"
     d="m 186.50145,472.81026 c -0.137,9.32639 0.68293,18.78948 -7.98516,26.89715 -4.18887,7.19462 -11.59939,11.16761 -20.83436,13.31613 -7.70219,3.53552 -17.01432,5.50093 -28.4844,5.36177 -3.70186,-0.59203 -6.98165,-3.29437 -10.05332,-7.03733 -1.76053,0.91145 -2.48051,2.51661 -2.34578,4.69156 1.19633,5.23024 3.82402,10.10264 10.05332,14.07464 8.48947,2.95359 16.97894,2.07965 25.46841,0.67023 9.45885,-1.96895 15.90028,-4.78354 27.47908,-9.04799 7.89712,-5.4489 15.87611,-10.69529 24.72385,-16.73171 7.84002,-8.94514 14.29395,-16.9774 17.83519,-27.16779 1.8098,-1.49524 3.60673,-3.09346 6.032,0.33511 l 4.69155,19.43643 c 2.91479,8.99551 6.53273,14.47524 10.05332,20.44174 6.03432,9.05575 10.93971,14.34841 15.07997,17.09064 4.83674,2.4106 9.82618,4.60741 17.76086,2.68089 5.46864,0.72348 10.90161,1.83926 15.75021,9.3831 l 4.69154,9.04799 c 1.61327,-2.16389 3.25062,-4.31173 3.016,-7.70755 -0.40392,-2.75834 -0.466,-4.94693 -2.68088,-10.72354 -3.62981,-6.64248 -6.71159,-9.44872 -9.71821,-11.72887 -5.04365,-2.73917 -7.22345,-6.11475 -17.42576,-7.70755 -5.69688,-4.69155 -8.36736,-9.38309 -8.37776,-14.07464 -0.21179,-4.90915 0.0439,-9.58458 -1.34044,-15.07998 l 2.34578,-11.39377 c 3.62528,-3.35115 7.5198,-5.22145 12.39908,-1.67555 l 13.40443,17.09064 c 6.5633,7.05595 11.04218,8.6924 15.41509,10.05332 7.77115,1.94627 14.90054,2.28814 21.78219,2.01067 6.52492,-2.44281 13.24593,-4.57435 21.44708,-4.35644 4.76631,-0.10996 9.45023,-0.71425 15.07998,4.35644 3.79274,1.62057 5.2146,3.63628 6.36711,5.69688 2.58342,-2.13901 2.20862,-5.46131 0.3351,-9.3831 -1.24567,-5.67653 -3.23222,-8.0191 -5.36176,-9.71821 -6.0278,-4.64622 -11.65405,-6.22985 -17.09065,-6.3671 -5.71728,-2.39343 -10.30958,-2.60844 -17.31144,-4.7227 -12.01218,1.98496 -15.42971,-6.1673 -23.85548,-10.64176 -9.19703,-4.88404 -23.23838,-6.38059 -32.83236,-10.42176 z"
     id="path4528"
     inkscape:connector-curvature="0"
     sodipodi:nodetypes="ccccccccccccccccccccccccccccccccccccscc" />
  <path
     style="opacity:1;fill:#ff0000;fill-opacity:1;stroke:#ff0000;stroke-width:0.5226481;stroke-opacity:1"
     d="m 648.08745,649.0589 -21.60332,-8.6932 -28.30957,4.09379 c -15.57026,2.25159 -36.71767,5.31326 -46.99424,6.80372 l -18.68467,2.70992 v -34.38567 c 0,-28.21031 -0.12445,-34.38568 -0.69299,-34.38568 -0.38115,0 -3.26224,0.36272 -6.40244,0.80604 -13.80515,1.94895 -31.7821,1.82376 -42.7709,-0.29786 -22.43103,-4.33079 -36.35141,-14.62445 -42.97959,-31.78198 -1.07303,-2.77763 -3.44594,-7.98382 -5.27313,-11.56932 -7.44208,-14.60356 -16.47379,-25.57587 -24.44192,-29.69362 -5.31433,-2.74633 -12.28223,-10.11319 -12.28223,-12.98546 0,-3.94864 8.79691,-5.58609 18.03136,-3.35636 10.72353,2.58928 20.72565,8.37821 28.2879,16.37219 3.60622,3.81209 4.44584,4.96575 10.84603,14.90273 5.74682,8.92255 14.46993,17.10663 22.53854,21.14583 7.85192,3.93072 15.42064,5.34736 26.5153,4.96289 8.90138,-0.30846 16.16611,-1.84074 24.47169,-5.16155 3.5157,-1.40568 4.47003,-2.02011 4.76019,-3.06478 0.1996,-0.71864 0.9403,-3.79844 1.64601,-6.84401 2.34335,-10.11298 6.63527,-18.75864 12.9606,-26.10791 l 2.98493,-3.46815 -10.01431,-1.17944 c -20.69925,-2.43787 -35.67702,-5.39855 -48.16761,-9.52135 -41.46127,-13.68524 -61.32046,-42.7492 -65.11829,-95.30074 -0.81662,-11.29993 -0.34724,-27.50957 1.02158,-35.27875 2.60834,-14.80449 8.72081,-26.90879 20.52271,-40.64037 l 3.94517,-4.59022 -0.9455,-2.7816 c -1.71305,-5.03974 -3.52937,-14.33401 -4.15052,-21.23868 -1.09641,-12.18756 0.38468,-26.64865 4.02806,-39.32927 l 0.78838,-2.7439 2.9475,-8.73767 7.08591,2.62955 c 4.03831,9.66199 13.39062,14.81863 20.09266,22.22225 5.54197,5.87195 11.28359,8.58021 29.0348,6.86621 l 19.79798,-1.91163 9.22042,-2.18596 c 19.61515,-4.65031 33.50238,-6.34573 54.9907,-6.71353 25.68422,-0.43963 42.37625,1.31255 66.41881,6.97205 l 8.18212,1.92603 23.45331,-1.44666 c 10.32002,-1.37853 19.10268,2.82162 26.35657,-3.81986 12.05979,-11.04163 12.17312,-18.54773 19.67389,-22.16474 l 6.3751,-2.50629 3.00358,8.87025 1.64787,6.66376 c 2.70137,10.92403 3.35316,17.16044 3.07259,29.39896 -0.26058,11.36622 -0.92366,16.2559 -3.29667,24.31016 -0.76109,2.58324 -1.41636,4.95345 -1.45616,5.26714 -0.0398,0.31368 2.16196,3.21162 4.89279,6.43988 14.1528,16.73071 19.83464,28.21604 22.25832,44.99327 0.7112,4.92305 0.81503,8.56347 0.57387,20.12195 -0.36795,17.63526 -1.50744,26.65623 -5.0972,40.35292 -6.15949,23.50148 -18.97438,41.67094 -37.65464,53.38828 -5.30648,3.32852 -15.70992,8.09899 -22.78821,10.44946 -12.79874,4.25005 -29.56607,7.5737 -50.69264,10.04838 l -10.03813,1.17583 2.85456,3.08326 c 7.52743,8.13053 11.90422,17.60031 14.68047,31.7632 0.9076,4.63005 0.97749,8.55109 1.03555,58.0978 0.0342,29.22296 0.21511,53.74169 0.40194,54.48607 0.18683,0.74437 0.27641,1.33141 0.19906,1.30452 -0.0773,-0.0269 -9.86211,-3.96082 -21.74394,-8.74208 z M 507.20456,566.06289 c 3.01339,-1.42995 3.07584,-5.24709 0.11092,-6.78031 -2.35999,-1.2204 -6.80974,-0.7846 -8.53465,0.83587 -2.03076,1.90781 -1.51964,5.26818 0.95282,6.26436 1.85555,0.74761 5.5551,0.58919 7.47091,-0.31992 z m 18.69409,-1.81294 c 2.63531,-0.73173 4.50641,-2.62224 4.50641,-4.55316 0,-2.93646 -3.92351,-4.72654 -7.59396,-3.4647 -5.92871,2.03819 -5.56981,7.71459 0.53821,8.51233 0.28746,0.0375 1.43466,-0.18497 2.54934,-0.49447 z m -40.25048,-1.55997 c 3.55427,-2.79579 -0.2337,-7.80178 -5.90351,-7.80178 -4.20346,0 -6.32531,4.07786 -3.50199,6.73025 2.43034,2.28318 7.17758,2.82401 9.4055,1.07153 z m -19.52882,-10.41502 c 1.22622,-1.22623 1.31473,-2.5246 0.33239,-4.87569 -1.69779,-4.06337 -6.44636,-5.84444 -9.05306,-3.39558 -1.52621,1.4338 -1.53237,2.93396 -0.0212,5.17631 2.52299,3.74386 6.63662,5.20024 8.74191,3.09496 z M 451.4852,536.59551 c 2.79387,-2.79387 -0.35672,-9.40766 -4.48149,-9.40766 -2.22401,0 -3.35823,1.18329 -3.35823,3.50351 0,2.39568 1.63963,5.02857 3.79245,6.08987 2.2192,1.09402 2.7939,1.06765 4.04727,-0.18572 z m -10.96058,-15.95887 c 0.95416,-1.14969 0.73875,-3.86554 -0.43085,-5.4321 -0.55169,-0.73892 -1.85508,-1.66778 -2.89643,-2.06412 -1.66817,-0.63491 -2.05,-0.61798 -3.21041,0.14235 -1.52618,1 -1.70888,2.74633 -0.52652,5.03277 1.39495,2.69753 5.60402,4.08052 7.06421,2.3211 z m -11.94643,-11.56116 c 2.30728,-2.08805 -0.0999,-5.4068 -3.92161,-5.4068 -3.89448,0 -4.50338,2.2689 -1.32634,4.94221 1.8179,1.52966 3.8703,1.71135 5.24795,0.46459 z"
     id="path4530"
     inkscape:connector-curvature="0"
     sodipodi:nodetypes="scsscssssccssscsssscsccsssssccscccccscsssccsccccscccssscssccscccscsccccssccsscsccccccssscsscsccscscc"
     transform="matrix(0.90676312,0,0,0.90676312,-296.05787,-120.90175)" />
  <path
     style="opacity:1;fill:#800000;fill-opacity:1;stroke:#ff0000;stroke-width:0.092392;stroke-opacity:1"
     d="m 452.58852,256.00724 c 0,-0.20313 0.0911,-0.2343 0.39962,-0.13678 0.16291,0.0515 2.1213,0.12268 4.40477,0.16011 l 4.11144,0.0674 -4.45791,0.0162 c -3.66145,0.0133 -4.45792,-0.006 -4.45792,-0.10696 z"
     id="path4536"
     inkscape:connector-curvature="0"
     transform="matrix(0.90676312,0,0,0.90676312,-296.05787,-120.90175)" />
  <path
     style="opacity:1;fill:#fa0000;fill-opacity:1;stroke:#ff0000;stroke-width:0.01633275;stroke-opacity:1"
     d="m 453.22392,256.04521 c -0.19313,-0.007 -0.39893,-0.0204 -0.45732,-0.03 -0.0584,-0.01 -0.11247,-0.0174 -0.12018,-0.0175 -0.017,-1.5e-4 0.002,-0.0817 0.0255,-0.11028 0.0238,-0.0287 0.0853,-0.0256 0.22635,0.0113 0.22095,0.0578 0.97796,0.0984 2.73473,0.14651 0.35302,0.01 0.17051,0.0125 -0.8003,0.0125 -0.6917,2e-5 -1.41565,-0.006 -1.60878,-0.0126 z"
     id="path4540"
     inkscape:connector-curvature="0"
     transform="matrix(0.90676312,0,0,0.90676312,-296.05787,-120.90175)" />
  <path
     style="opacity:1;fill:#fa0000;fill-opacity:1;stroke:#ff0000;stroke-width:0.011549;stroke-opacity:1"
     d="m 579.17575,268.95678 0.003,-0.0606 0.31182,-0.0253 c 5.68002,-0.46152 11.02948,-0.72862 16.72295,-0.83498 2.98802,-0.0558 7.37381,-0.0528 9.64053,0.007 l 0.28584,0.007 v 0.13201 0.13201 l -0.14148,-0.006 c -0.31592,-0.0138 -3.31916,-0.0179 -5.06712,-0.007 -8.08715,0.0506 -15.23739,0.28152 -21.30213,0.68781 -0.23502,0.0157 -0.43408,0.0286 -0.44235,0.0287 -0.0109,2e-5 -0.0141,-0.0167 -0.0116,-0.0606 z"
     id="path4544"
     inkscape:connector-curvature="0"
     transform="matrix(0.90676312,0,0,0.90676312,-296.05787,-120.90175)" />
  <path
     style="opacity:1;fill:#fa0000;fill-opacity:1;stroke:#ff0000;stroke-width:0.00816638;stroke-opacity:1"
     d="m 747.4983,256.17944 c 0.29166,-0.01 0.72233,-0.0304 0.91419,-0.0443 0.46353,-0.0334 0.64205,-0.0722 0.70648,-0.15358 0.0224,-0.0283 0.0248,-0.0367 0.0238,-0.0858 -0.001,-0.056 -0.0252,-0.15769 -0.0851,-0.3577 -0.0182,-0.0609 -0.0319,-0.11427 -0.0305,-0.11861 0.003,-0.008 0.24317,0.74328 0.24317,0.75982 0,0.007 -0.25975,0.009 -0.98609,0.008 -0.6825,-8.7e-4 -0.92449,-0.003 -0.78601,-0.008 z"
     id="path4546"
     inkscape:connector-curvature="0"
     transform="matrix(0.90676312,0,0,0.90676312,-296.05787,-120.90175)" />
  <path
     style="opacity:1;fill:#000000;fill-opacity:1;stroke:#000000;stroke-width:0.00390625;stroke-opacity:1"
     d=""
     id="path4560"
     inkscape:connector-curvature="0"
     transform="matrix(0.90676312,0,0,0.90676312,-296.05787,-120.90175)" />
  <path
     style="opacity:1;fill:#000000;fill-opacity:1;stroke:#000000;stroke-width:0.00390625;stroke-opacity:1"
     d=""
     id="path4562"
     inkscape:connector-curvature="0"
     transform="matrix(0.90676312,0,0,0.90676312,-296.05787,-120.90175)" />
  <path
     style="opacity:1;fill:#000000;fill-opacity:1;stroke:#000000;stroke-width:0.17677669;stroke-opacity:1"
     d="m 499.52668,279.54269 c -5.57423,-0.42627 -9.17512,-1.45703 -12.30282,-3.5217 -0.79487,-0.52471 -2.73231,-2.25894 -4.9329,-4.4155 -1.99316,-1.95327 -5.37917,-5.11023 -7.52447,-7.01546 -6.47449,-5.74997 -9.4105,-9.21064 -11.38552,-13.42011 l -0.53019,-1.13002 -3.36108,-1.23058 c -1.94931,-0.7137 -3.26621,-1.28368 -3.13523,-1.35698 0.48804,-0.27312 4.60912,-3.0693 6.51482,-3.0693 10.55989,0 28.90346,4.72658 48.00817,15.26251 7.18045,3.9599 14.64694,13.59762 19.29382,16.85132 0.86365,0.60472 0.90988,0.67017 0.53033,0.75086 -0.43077,0.0916 -15.41482,1.53415 -20.39155,1.96317 -2.95092,0.25438 -9.258,0.44844 -10.78338,0.33179 z"
     id="path4566"
     inkscape:connector-curvature="0"
     transform="matrix(0.90676312,0,0,0.90676312,-296.05787,-120.90175)"
     sodipodi:nodetypes="cccscccssssccc" />
  <path
     style="opacity:1;fill:#000000;fill-opacity:1;stroke:#000000;stroke-width:0.00390625;stroke-opacity:1"
     d="m 481.15591,250.54818 c -3.04413,-1.05676 -6.04786,-1.93458 -8.78052,-2.56603 -0.0877,-0.0203 -0.16372,-0.0379 -0.16895,-0.0392 -0.008,-0.002 -0.01,-0.005 -0.01,-0.0176 0,-0.008 7e-4,-0.0152 0.002,-0.0152 0.0101,0 0.72874,0.16872 1.03166,0.2422 2.46221,0.59727 5.23891,1.42572 7.97231,2.37859 0.0621,0.0216 0.11353,0.0394 0.11425,0.0394 7.3e-4,0 10e-4,0.007 10e-4,0.0156 0,0.01 -0.002,0.0155 -0.005,0.0154 -0.003,-1.2e-4 -0.0734,-0.024 -0.15723,-0.0531 z"
     id="path4568"
     inkscape:connector-curvature="0"
     transform="matrix(0.90676312,0,0,0.90676312,-296.05787,-120.90175)" />
  <path
     style="opacity:1;fill:#000000;fill-opacity:1;stroke:#000000;stroke-width:0.08838835;stroke-opacity:1"
     d="m 670.62243,277.08807 c 0.0462,-0.0435 1.21755,-0.82957 2.60303,-1.74681 14.4486,-9.5654 26.7342,-23.00754 38.67511,-27.80109 8.18534,-3.28591 18.48435,-4.57494 24.64626,-5.28461 1.85347,-0.21347 4.71641,4.41068 6.24026,4.623 1.12985,0.1577 2.64623,0.47547 2.75835,0.57804 0.0344,0.0314 -1.15887,0.5339 -2.65165,1.11656 -1.49278,0.58267 -3.03235,1.21182 -3.42126,1.39812 -1.50505,0.72097 -3.16983,2.00542 -4.43144,3.41907 -0.96526,1.08157 -1.60744,1.96156 -3.966,5.4347 -3.84808,5.66657 -5.57387,7.78779 -9.4254,11.58508 -2.5079,2.47258 -3.7575,3.39607 -5.68419,4.20075 -1.02307,0.42729 -2.44834,0.80448 -3.86493,1.02285 -1.30275,0.20082 -5.10077,0.21508 -8.11596,0.0305 -3.07926,-0.18853 -7.66359,-0.17609 -9.63433,0.0261 -1.453,0.14911 -22.48228,1.47646 -23.3915,1.47646 -0.25095,0 -0.38649,-0.0319 -0.33635,-0.0791 z"
     id="path4570"
     inkscape:connector-curvature="0"
     transform="matrix(0.90676312,0,0,0.90676312,-296.05787,-120.90175)"
     sodipodi:nodetypes="ccsccccccssccccscc" />
  <ellipse
     style="opacity:1;fill:#000000;fill-opacity:1;stroke-width:0.90676314"
     id="path4524-9"
     cx="-392.33658"
     cy="328.66699"
     rx="4.7391801"
     ry="3.5543849"
     transform="rotate(-73.136415)" />
  <ellipse
     style="opacity:1;fill:#000000;fill-opacity:1;stroke-width:0.75937539"
     id="path4524-9-0"
     cx="-335.41461"
     cy="407.6459"
     rx="3.9372253"
     ry="3.0005629"
     transform="matrix(0.48730534,-0.87323164,0.87838909,0.47794623,0,0)" />
  <ellipse
     style="opacity:1;fill:#000000;fill-opacity:1;stroke-width:0.75937539"
     id="path4524-9-0-9"
     cx="-207.97829"
     cy="494.05975"
     rx="3.9372251"
     ry="3.0005629"
     transform="matrix(0.73445807,-0.67865407,0.68646368,0.72716409,0,0)" />
  <ellipse
     style="opacity:1;fill:#000000;fill-opacity:1;stroke-width:0.67261666"
     id="path4524-9-0-9-5"
     cx="-202.47629"
     cy="513.5412"
     rx="3.4939904"
     ry="2.6527328"
     transform="matrix(0.79451542,-0.60724397,0.65831802,0.75273992,0,0)" />
  <ellipse
     style="opacity:1;fill:#000000;fill-opacity:1;stroke-width:0.67261666"
     id="path4524-9-0-9-5-4"
     cx="-112.28611"
     cy="536.37408"
     rx="3.4939904"
     ry="2.6527328"
     transform="matrix(0.89979746,-0.43630785,0.49469704,0.8690655,0,0)" />
  <ellipse
     style="opacity:1;fill:#000000;fill-opacity:1;stroke-width:0.56917602"
     id="path4524-9-0-9-5-4-7"
     cx="-74.124313"
     cy="535.80457"
     rx="2.8861294"
     ry="2.2996271"
     transform="matrix(0.91111534,-0.41215147,0.40836377,0.91281928,0,0)" />
  <ellipse
     style="opacity:1;fill:#000000;fill-opacity:1;stroke-width:0.56917602"
     id="path4524-9-0-9-5-4-7-1"
     cx="129.25002"
     cy="525.22522"
     rx="2.8861294"
     ry="2.2996271"
     transform="matrix(0.99979791,-0.02010332,0.01595065,0.99987278,0,0)" />
  <ellipse
     style="opacity:1;fill:#000000;fill-opacity:1;stroke-width:0.48630735"
     id="path4524-9-0-9-5-4-7-1-1"
     cx="339.47421"
     cy="414.74759"
     rx="2.5459902"
     ry="1.9030271"
     transform="matrix(0.90194176,0.43185768,-0.43353015,0.90113906,0,0)" />
  <ellipse
     style="opacity:1;fill:#000000;fill-opacity:1;stroke-width:0.90676314"
     id="path4524-9-9"
     cx="-420.17413"
     cy="357.52567"
     rx="4.7391801"
     ry="3.5543849"
     transform="rotate(-82.762106)" />
  <ellipse
     style="opacity:1;fill:#000000;fill-opacity:1;stroke-width:0.75937539"
     id="path4524-9-0-3"
     cx="557.54034"
     cy="77.617279"
     rx="3.9372251"
     ry="3.0005629"
     transform="matrix(0.6490658,0.76073227,-0.75375297,0.65715787,0,0)" />
  <ellipse
     style="opacity:1;fill:#000000;fill-opacity:1;stroke-width:0.75937539"
     id="path4524-9-0-9-7"
     cx="494.07578"
     cy="293.05945"
     rx="3.9372251"
     ry="3.0005629"
     transform="matrix(0.89361085,0.44884257,-0.43926789,0.89835612,0,0)" />
  <ellipse
     style="opacity:1;fill:#000000;fill-opacity:1;stroke-width:0.67261666"
     id="path4524-9-0-9-5-2"
     cx="207.10811"
     cy="535.73041"
     rx="3.4939904"
     ry="2.6527328"
     transform="matrix(0.98654602,-0.16348378,0.22818768,0.97361716,0,0)" />
  <ellipse
     style="opacity:1;fill:#000000;fill-opacity:1;stroke-width:0.67261666"
     id="path4524-9-0-9-5-4-1"
     cx="320.92557"
     cy="481.08179"
     rx="3.4939904"
     ry="2.6527328"
     transform="matrix(0.99962576,0.02735574,0.03862617,0.99925373,0,0)"
     inkscape:transform-center-x="2.1239033"
     inkscape:transform-center-y="1.8433878" />
  <ellipse
     style="opacity:1;fill:#000000;fill-opacity:1;stroke-width:0.56917602"
     id="path4524-9-0-9-5-4-7-5"
     cx="497.93954"
     cy="345.10419"
     rx="2.8861294"
     ry="2.2996271"
     transform="matrix(0.94274613,0.33351123,-0.33742389,0.94135281,0,0)" />
  <ellipse
     style="opacity:1;fill:#000000;fill-opacity:1;stroke-width:0.48630732"
     id="path4524-9-0-9-5-4-7-1-1-6"
     cx="541.87415"
     cy="291.60049"
     rx="2.5459902"
     ry="1.9030271"
     transform="matrix(0.90194176,0.43185768,-0.43353015,0.90113906,0,0)" />
  <ellipse
     style="opacity:1;fill:#000000;fill-opacity:1;stroke-width:0.90676314"
     id="path4524-9-5"
     cx="-467.24701"
     cy="260.28241"
     rx="4.7391801"
     ry="3.5543849"
     transform="rotate(-88.506814)" />
  <ellipse
     style="opacity:1;fill:#000000;fill-opacity:1;stroke-width:0.75937539"
     id="path4524-9-0-97"
     cx="-511.19626"
     cy="208.67719"
     rx="3.9372251"
     ry="3.0005629"
     transform="matrix(-0.08004807,-0.996791,0.9958787,-0.09069513,0,0)" />
  <ellipse
     style="opacity:1;fill:#000000;fill-opacity:1;stroke-width:0.75937539"
     id="path4524-9-0-9-56"
     cx="565.34033"
     cy="-18.83975"
     rx="3.9372251"
     ry="3.0005629"
     transform="matrix(0.41842414,0.90825175,-0.90372865,0.42810575,0,0)" />
  <ellipse
     style="opacity:1;fill:#000000;fill-opacity:1;stroke-width:0.67261666"
     id="path4524-9-0-9-5-8"
     cx="522.56268"
     cy="215.38097"
     rx="3.4939904"
     ry="2.6527328"
     transform="matrix(0.74895315,0.66262296,-0.61178927,0.79102079,0,0)" />
  <ellipse
     style="opacity:1;fill:#000000;fill-opacity:1;stroke-width:0.67261666"
     id="path4524-9-0-9-5-4-2"
     cx="264.30328"
     cy="509.72241"
     rx="3.4939904"
     ry="2.6527328"
     transform="matrix(0.99838023,0.05689398,0.0090701,0.99995887,0,0)" />
  <ellipse
     style="opacity:1;fill:#000000;fill-opacity:1;stroke-width:0.56917602"
     id="path4524-9-0-9-5-4-7-6"
     cx="439.08218"
     cy="408.70557"
     rx="2.8861294"
     ry="2.2996271"
     transform="matrix(0.9450369,0.3269637,-0.33088593,0.94367076,0,0)" />
  <ellipse
     style="opacity:1;fill:#000000;fill-opacity:1;stroke-width:0.56917602"
     id="path4524-9-0-9-5-4-7-1-5"
     cx="592.56219"
     cy="135.21046"
     rx="2.8861294"
     ry="2.2996271"
     transform="matrix(0.6585158,0.7525669,-0.75529544,0.65538446,0,0)" />
  <ellipse
     style="opacity:1;fill:#000000;fill-opacity:1;stroke-width:0.48630732"
     id="path4524-9-0-9-5-4-7-1-1-0"
     cx="616.44965"
     cy="28.368237"
     rx="2.5459902"
     ry="1.9030271"
     transform="matrix(0.5167025,0.85616501,-0.85712208,0.51511332,0,0)" />
  <path
     style="fill:#e9afaf;fill-opacity:1;stroke:none;stroke-width:1.67481697px;stroke-linecap:butt;stroke-linejoin:miter;stroke-opacity:1"
     d="m 126.80089,220.85848 c 4.61862,-11.53185 12.20064,-21.60536 27.97479,-25.9948 23.21098,-1.52409 55.07426,28.21353 90.09532,23.0118 37.45685,4.84533 66.78694,-20.80497 81.74696,-21.40617 20.80199,0.11693 28.24575,2.20618 41.25991,19.27544 10.0179,25.00045 10.25875,40.05706 0.82278,75.00138 -9.09427,10.41374 -16.46788,14.96912 -32.50013,19.60264 -79.56151,12.99825 -91.87796,17.02717 -168.98319,3.31462 -21.77929,-5.03372 -24.6428,-9.49849 -36.84581,-23.52951 -5.64008,-15.38437 -5.61765,-15.81337 -5.81261,-36.56488 -2.29383,-25.07937 -0.41018,-24.65949 2.24198,-32.71052 z"
     id="path5082"
     inkscape:connector-curvature="0"
     sodipodi:nodetypes="ccccccccccc" />
  <g
     id="g5049"
     transform="matrix(0.13571775,0,0,0.11488958,182.71397,170.02418)"
     style="fill:#333333">
    <g
       id="g4992"
       style="fill:#333333">
      <g
         id="g4990"
         style="fill:#333333">
        <path
           id="path4988"
           d="m 867.33183,502.84927 c -11.246,-12.453 -132.373,-110.907 -154.023,-117.272 -9.421,-2.735 -18.892,-4.447 -28.681,-5.164 -45.272,-3.315 -95.213,10.875 -126.684,44.794 -2.741,2.956 -4.311,4.645 -4.311,4.645 0,0 1.172,-1.996 3.224,-5.488 9.706,-16.365 23.847,-30.577 38.989,-41.956 6.979,-5.243 14.37,-9.937 22.088,-14.014 2.116,-1.118 21.797,-11.751 23.12,-10.357 -0.003,-0.003 -10.744,-11.33 -10.744,-11.33 -17.273,-17.276 -35.963,-32.167 -61.415,-32.167 -31.547,0 -58.505,19.559 -69.472,47.201 -9.306,-6.917 -24.11,-11.392 -40.788,-11.392 -16.678,0 -31.481,4.475 -40.788,11.392 -10.967,-27.643 -37.925,-47.201 -69.472,-47.201 -25.452,0 -44.142,14.891 -61.416,32.166 0,0 -10.741,11.327 -10.744,11.33 1.322,-1.395 21.003,9.239 23.12,10.357 7.718,4.077 15.109,8.771 22.088,14.014 15.145,11.378 29.283,25.591 38.989,41.956 2.052,3.493 3.224,5.488 3.224,5.488 0,0 -1.566,-1.689 -4.31,-4.645 -31.471,-33.919 -81.411,-48.109 -126.683,-44.794 -9.789,0.717 -19.26,2.429 -28.681,5.164 -21.651,6.365 -142.778005,104.819 -154.023005,117.272 -32.504,35.994 -52.3010008,83.685 -52.3010008,136.004 0,112.112 90.8860008,203 203.0000058,203 102.56,0 187.34,-76.062 201.048,-174.851 15.983,11.645 35.663,18.52 56.951,18.52 21.289,0 40.968,-6.875 56.951,-18.52 13.708,98.788 98.487,174.851 201.048,174.851 112.114,0 203,-90.888 203,-203 -0.002,-52.319 -19.799,-100.008 -52.304,-136.003 z m -671.197,263.503 c -67.611,0 -122.421005,-54.811 -122.421005,-122.421 0,-67.61 54.810005,-122.42 122.421005,-122.42 67.611,0 122.421,54.81 122.421,122.42 0,67.61 -54.81,122.421 -122.421,122.421 z m 262.5,-133.921 c -17.833,0 -32.29,-14.457 -32.29,-32.29 0,-17.833 14.457,-32.289 32.29,-32.289 17.833,0 32.29,14.457 32.29,32.289 0,17.833 -14.457,32.29 -32.29,32.29 z m 262.5,133.921 c -67.611,0 -122.421,-54.811 -122.421,-122.421 0,-67.61 54.81,-122.42 122.421,-122.42 67.611,0 122.421,54.81 122.421,122.42 0,67.61 -54.81,122.421 -122.421,122.421 z"
           inkscape:connector-curvature="0"
           style="fill:#333333" />
      </g>
    </g>
    <g
       id="g4994"
       style="fill:#333333" />
    <g
       id="g4996"
       style="fill:#333333" />
    <g
       id="g4998"
       style="fill:#333333" />
    <g
       id="g5000"
       style="fill:#333333" />
    <g
       id="g5002"
       style="fill:#333333" />
    <g
       id="g5004"
       style="fill:#333333" />
    <g
       id="g5006"
       style="fill:#333333" />
    <g
       id="g5008"
       style="fill:#333333" />
    <g
       id="g5010"
       style="fill:#333333" />
    <g
       id="g5012"
       style="fill:#333333" />
    <g
       id="g5014"
       style="fill:#333333" />
    <g
       id="g5016"
       style="fill:#333333" />
    <g
       id="g5018"
       style="fill:#333333" />
    <g
       id="g5020"
       style="fill:#333333" />
    <g
       id="g5022"
       style="fill:#333333" />
  </g>
  <path
     style="opacity:1;fill:#00ff00;fill-opacity:1;stroke:#000000;stroke-width:0.22669078;stroke-opacity:1"
     d="m 205.90362,257.67581 c -7.818,-1.53244 -13.04255,-7.03483 -13.03203,-13.72505 0.01,-6.32702 4.85976,-11.66363 12.19118,-13.41493 2.65024,-0.63307 7.26819,-0.51232 9.68179,0.25318 5.21797,1.65491 9.16979,5.30434 10.56043,9.75234 0.58061,1.85708 0.62219,4.89729 0.0922,6.74368 -0.98975,3.44838 -3.77794,6.6927 -7.32709,8.52575 -1.13742,0.58746 -2.86103,1.27469 -3.83025,1.52717 -2.2841,0.59499 -6.21226,0.7542 -8.33626,0.33786 z"
     id="path5051"
     inkscape:connector-curvature="0" />
  <path
     style="opacity:1;fill:#00ff00;fill-opacity:1;stroke:#000000;stroke-width:0.22669078;stroke-opacity:1"
     d="m 243.3076,242.28095 c -1.68008,-0.65743 -2.60694,-1.83613 -2.60694,-3.31529 0,-1.89114 2.06672,-3.63567 4.30712,-3.63567 1.79795,0 3.8628,1.45957 4.15883,2.93972 0.5674,2.83699 -2.8612,5.18431 -5.85901,4.01124 z"
     id="path5053"
     inkscape:connector-curvature="0" />
  <path
     style="opacity:1;fill:#00ff00;fill-opacity:1;stroke:#000000;stroke-width:0.22669078;stroke-opacity:1"
     d="m 277.51358,257.74986 c -5.92108,-0.99046 -10.94878,-4.80428 -12.70245,-9.63561 -2.37266,-6.53661 1.20184,-13.54038 8.49097,-16.63694 4.29823,-1.82598 10.11907,-1.83086 14.52939,-0.0121 9.69268,3.99693 12.27825,14.599 5.25407,21.54422 -2.00585,1.98329 -3.59822,2.97781 -6.19411,3.86849 -3.10965,1.06696 -6.38937,1.37194 -9.37787,0.87203 z"
     id="path5055"
     inkscape:connector-curvature="0" />
  <ellipse
     style="opacity:1;fill:#000000;fill-opacity:1;stroke-width:1.53035939"
     id="path4524-9-0-2"
     cx="208.76059"
     cy="273.22925"
     rx="7.7939806"
     ry="6.1561255"
     transform="matrix(0.99789585,-0.06483735,0.13186897,0.99126716,0,0)" />
  <rect
     style="opacity:0.01000001;fill:#e9afaf;fill-opacity:1;stroke:none;stroke-width:0.90676314;stroke-opacity:1"
     id="rect877"
     width="61.659893"
     height="29.01642"
     x="210.82271"
     y="274.44696" />
  <ellipse
     style="opacity:0.01000001;fill:#ff0000;fill-opacity:1;stroke:none;stroke-width:0.90676314;stroke-opacity:1"
     id="path883"
     cx="-202.66127"
     cy="142.51294"
     rx="16.321735"
     ry="26.749512" />
  <ellipse
     style="opacity:1;fill:#000000;fill-opacity:1;stroke-width:2.09859538"
     id="path4524-9-0-2-7"
     cx="-124.32462"
     cy="469.73788"
     rx="26.040928"
     ry="3.4648216"
     transform="matrix(0.99997665,-0.00683326,0.78446036,0.62017896,0,0)" />
</svg>
